# xmcd
#
# Track frame offsets: 
#        150
#        16942
#        28165
#        51470
#        64677
#        79557
#        94875
#        114950
#        132160
#        141955
#        161425
#        171552
#
# Disc length: 2571 seconds
#
# Revision: 1
# Processed by: cddbd v1.5.2PL0 Copyright (c) Steve Scherf et al.
# Submitted via: ExactAudioCopy v0.95b4
#
DISCID=9f0a090c
DTITLE=Various Artist - CABARET ORIGINAL MOTION PICTURE SOUNDTRACK
DYEAR=1986
DGENRE=Soundtrack
TTITLE0=LEFT ALONE
TTITLE1=SIDE BY SIDE
TTITLE2=K'S BAR
TTITLE3=NOW'S THE TIME
TTITLE4=WRAP YOUR TROUBLES IN DREAMS
TTITLE5=HARBOR LIGHTS
TTITLE6=LEFT ALONE
TTITLE7=INTO THE NIGHT
TTITLE8=STAR DUST
TTITLE9=PEEK-A-BOO
TTITLE10=ADAGIO
TTITLE11=LEFT ALONE
EXTD=
EXTT0=
EXTT1=
EXTT2=
EXTT3=
EXTT4=
EXTT5=
EXTT6=
EXTT7=
EXTT8=
EXTT9=
EXTT10=
EXTT11=
PLAYORDER=
